<svg width="32" height="32" viewBox="0 0 32 32" fill="none" xmlns="http://www.w3.org/2000/svg">
<path d="M31.0117 15.0102L17.0482 1.04676L15.6947 -0.306763L5.18357 10.2044L0.37775 15.0102C0.137115 15.2511 0.00195312 15.5778 0.00195313 15.9182C0.00195312 16.2587 0.137115 16.5854 0.37775 16.8263L9.98083 26.4294L15.6947 32.1433L26.2059 21.6322L26.3686 21.4694L31.0117 16.8263C31.2523 16.5854 31.3874 16.2587 31.3874 15.9182C31.3874 15.5778 31.2523 15.2511 31.0117 15.0102ZM15.6947 20.7155L10.8975 15.9182L15.6947 11.121L20.492 15.9182L15.6947 20.7155Z" fill="#2684FF"/>
<path d="M15.6947 11.1209C14.1859 9.61191 13.3354 7.56725 13.3289 5.43336C13.3225 3.29947 14.1607 1.24972 15.6604 -0.268311L5.16211 10.2257L10.876 15.9396L15.6947 11.1209Z" fill="url(#paint0_linear)"/>
<path d="M20.5054 15.9054L15.6953 20.7155C16.4459 21.4656 17.0414 22.3564 17.4476 23.3368C17.8539 24.3172 18.063 25.368 18.063 26.4293C18.063 27.4906 17.8539 28.5414 17.4476 29.5219C17.0414 30.5022 16.4459 31.393 15.6953 32.1433L26.2192 21.6192L20.5054 15.9054Z" fill="url(#paint1_linear)"/>
<defs>
<linearGradient id="paint0_linear" x1="14.838" y1="6.26798" x2="8.13898" y2="12.967" gradientUnits="userSpaceOnUse">
<stop offset="0.18" stop-color="#0052CC"/>
<stop offset="1" stop-color="#2684FF"/>
</linearGradient>
<linearGradient id="paint1_linear" x1="423.816" y1="994.723" x2="655.186" y2="844.769" gradientUnits="userSpaceOnUse">
<stop offset="0.18" stop-color="#0052CC"/>
<stop offset="1" stop-color="#2684FF"/>
</linearGradient>
</defs>
</svg>
