<svg width="88" height="88" viewBox="0 0 88 88" fill="none" xmlns="http://www.w3.org/2000/svg">
    <path d="M77.0005 -0.000488281H11.0005C5.00067 -0.000488281 0.000976562 4.99921 0.000976562 11V76.9991C0.000976562 82.9999 5.00067 87.9995 11.0005 87.9995H77.0005C83.0004 87.9995 88.001 82.9999 88.001 76.9991V11C88.0001 5.00017 83.2008 -0.000488281 77.0005 -0.000488281Z" fill="#E44432"/>
    <path d="M18.8002 41.1994C20.4006 40.3997 53.6006 21.1997 54.4003 20.7998C55.2 20.3999 55.2 18.9999 54.4003 18.6001C53.6006 18.2002 52.0001 17.2001 51.4008 16.8002C50.8006 16.4004 49.601 16.2009 48.6008 16.8002C48.201 16.9997 19.8003 33.4007 18.8002 34C17.6006 34.6003 16.2006 34.6003 15.2005 34C14.4008 33.4007 0.200439 25.2002 0.200439 25.2002V32.6C3.80015 34.7997 13.0008 39.9998 15.2005 41.2004C16.401 41.9991 17.6006 41.9991 18.8002 41.1994Z" fill="white"/>
    <path d="M18.8002 56.0002C20.4006 55.1995 53.6005 36.0004 54.4003 35.6006C55.2 35.2007 55.2 33.8007 54.4003 33.4009C53.6005 33.001 52.0001 32.0009 51.4008 31.601C50.8006 31.2011 49.601 31.0017 48.6008 31.601C48.201 31.8014 19.8003 48.2014 18.8002 48.8017C17.6006 49.402 16.2006 49.402 15.2005 48.8017C14.2003 48.2014 0.000976562 40 0.000976562 40V47.3998C3.60068 49.5995 12.8013 54.7996 15.001 56.0002C16.401 56.7999 17.6006 56.7999 18.8002 56.0002Z" fill="white"/>
    <path d="M18.8002 70.7989C20.4006 69.9992 53.6006 50.8001 54.4003 50.3993C55.2 49.9994 55.2 48.5995 54.4003 48.1996C53.6006 47.7997 52.0001 46.7996 51.4008 46.3997C50.8006 45.9999 49.601 45.7995 48.6008 46.3997C48.201 46.5992 19.8003 63.0002 18.8002 63.6005C17.6006 64.1998 16.2006 64.1998 15.2005 63.6005C14.4008 63.0002 0.200439 54.7997 0.200439 54.7997V62.2005C3.80015 64.4002 13.0008 69.6003 15.2005 70.7999C16.401 71.5996 17.6006 71.5996 18.8002 70.7989Z" fill="white"/>
</svg>
