<svg width="32" height="30" viewBox="0 0 32 30" fill="none" xmlns="http://www.w3.org/2000/svg">
<path d="M25.1735 15.7498C21.3474 15.7498 18.2463 18.8836 18.2463 22.7494C18.2463 26.6155 21.3474 29.75 25.1735 29.75C28.9989 29.75 32.1 26.6155 32.1 22.7494C32.1 18.8836 28.9989 15.7498 25.1735 15.7498ZM7.17683 15.7502C3.35141 15.7505 0.25 18.8836 0.25 22.7497C0.25 26.6155 3.35141 29.7497 7.17683 29.7497C11.0026 29.7497 14.104 26.6155 14.104 22.7497C14.104 18.8836 11.0026 15.7502 7.1765 15.7502H7.17683ZM23.1018 6.99992C23.1018 10.8657 20.0008 14.0005 16.1753 14.0005C12.3492 14.0005 9.24817 10.8657 9.24817 6.99992C9.24817 3.13413 12.3492 0 16.1753 0C20.0008 0 23.1015 3.13413 23.1015 6.99992H23.1018Z" fill="url(#paint0_radial)"/>
<defs>
<radialGradient id="paint0_radial" cx="0" cy="0" r="1" gradientUnits="userSpaceOnUse" gradientTransform="translate(16.175 16.259) scale(21.1048 19.7132)">
<stop stop-color="#FFB900"/>
<stop offset="0.6" stop-color="#F95D8F"/>
<stop offset="0.9991" stop-color="#F95353"/>
</radialGradient>
</defs>
</svg>
