<svg width="46" height="46" viewBox="0 0 46 46" fill="none" xmlns="http://www.w3.org/2000/svg">
<path d="M22.8185 0.376211H39.6778C40.4233 0.369402 41.1627 0.511212 41.8527 0.793357C42.5428 1.0755 43.1697 1.49233 43.6968 2.01948C44.224 2.54663 44.6408 3.17355 44.923 3.8636C45.2051 4.55365 45.3469 5.29301 45.3401 6.03849V22.8978C45.3401 25.8353 44.7615 28.744 43.6374 31.4579C42.5133 34.1717 40.8656 36.6376 38.7885 38.7147C36.7114 40.7919 34.2455 42.4395 31.5316 43.5636C28.8177 44.6878 25.909 45.2663 22.9715 45.2663H22.844C19.9044 45.2697 16.9929 44.6936 14.2761 43.571C11.5593 42.4483 9.09038 40.8012 7.01056 38.7238C4.93075 36.6463 3.28081 34.1793 2.15509 31.4638C1.02937 28.7482 0.449949 25.8374 0.449951 22.8978C0.449951 10.502 10.4482 0.503739 22.8185 0.376211Z" fill="#25C16F"/>
<path d="M22.8186 10.3748C20.0925 10.3748 17.478 11.4577 15.5504 13.3854C13.6227 15.313 12.5398 17.9275 12.5398 20.6536V27.6422C12.5593 28.5425 12.9257 29.4005 13.5624 30.0373C14.1992 30.6741 15.0572 31.0404 15.9576 31.0599H18.8652V23.0256H14.9373V20.7811C15.0526 18.7451 15.9425 16.8305 17.4246 15.4298C18.9068 14.0292 20.8687 13.2489 22.9079 13.2489C24.9471 13.2489 26.909 14.0292 28.3911 15.4298C29.8733 16.8305 30.7632 18.7451 30.8784 20.7811V23.0256H26.8995V31.0599H29.5266V31.1875C29.5135 32.0222 29.176 32.819 28.5858 33.4093C27.9955 33.9996 27.1986 34.337 26.3639 34.3502H23.2267C22.9717 34.3502 22.6911 34.4777 22.6911 34.7328C22.6973 34.8728 22.7558 35.0055 22.8549 35.1046C22.954 35.2037 23.0867 35.2621 23.2267 35.2684H26.3894C27.4697 35.2617 28.5038 34.8296 29.2677 34.0657C30.0316 33.3018 30.4637 32.2677 30.4703 31.1875V30.9324C31.2213 30.7633 31.8917 30.342 32.3697 29.7387C32.8477 29.1353 33.1046 28.3864 33.0974 27.6167V20.7811C33.225 14.9913 28.6339 10.3748 22.8186 10.3748Z" fill="white"/>
</svg>
