<svg width="32" height="32" viewBox="0 0 32 32" fill="none" xmlns="http://www.w3.org/2000/svg">
<path opacity="0.2" fill-rule="evenodd" clip-rule="evenodd" d="M13.3335 2.66663H18.6668V26.6666H13.3335V2.66663ZM5.3335 13.3333H10.6668V26.6666H5.3335V13.3333ZM26.6668 7.99996H21.3335V26.6666H26.6668V7.99996Z" fill="#777E85"/>
<path fill-rule="evenodd" clip-rule="evenodd" d="M13.3335 2.66663H18.6668V26.6666H13.3335V2.66663ZM14.6668 25.3333H17.3335V3.99996H14.6668V25.3333ZM5.3335 13.3333H10.6668V26.6666H5.3335V13.3333ZM6.66683 25.3333H9.3335V14.6666H6.66683V25.3333ZM25.3335 9.33329H22.6668V25.3333H25.3335V9.33329ZM26.6668 7.99996V26.6666H21.3335V7.99996H26.6668Z" fill="#777E85"/>
<rect x="1.3335" y="29.3333" width="29.3333" height="1.33333" fill="#777E85"/>
<rect x="1.3335" y="1.33331" width="1.33333" height="29.3333" fill="#777E85"/>
<path d="M2.66699 2.66665H4.00033V1.33331H2.66699V2.66665Z" fill="#777E85"/>
<path d="M2.66699 6.66665H4.00033V5.33331H2.66699V6.66665Z" fill="#777E85"/>
<path d="M2.66699 10.6666H4.00033V9.33331H2.66699V10.6666Z" fill="#777E85"/>
<path d="M2.66699 14.6666H4.00033V13.3333H2.66699V14.6666Z" fill="#777E85"/>
<path d="M2.66699 18.6666H4.00033V17.3333H2.66699V18.6666Z" fill="#777E85"/>
<path d="M2.66699 22.6666H4.00033V21.3333H2.66699V22.6666Z" fill="#777E85"/>
<path d="M2.66699 26.6666H4.00033V25.3333H2.66699V26.6666Z" fill="#777E85"/>
<path d="M5.3335 29.3333H6.66683V28H5.3335V29.3333Z" fill="#777E85"/>
<path d="M9.3335 29.3333H10.6668V28H9.3335V29.3333Z" fill="#777E85"/>
<path d="M13.3335 29.3333H14.6668V28H13.3335V29.3333Z" fill="#777E85"/>
<path d="M17.3335 29.3333H18.6668V28H17.3335V29.3333Z" fill="#777E85"/>
<path d="M21.3335 29.3333H22.6668V28H21.3335V29.3333Z" fill="#777E85"/>
<path d="M25.3335 29.3333H26.6668V28H25.3335V29.3333Z" fill="#777E85"/>
<path d="M29.3335 29.3333H30.6668V28H29.3335V29.3333Z" fill="#777E85"/>
</svg>
