<svg width="154" height="47" viewBox="0 0 154 47" fill="none" xmlns="http://www.w3.org/2000/svg">
<g filter="url(#filter0_d)">
<path d="M23.1334 43.6998C34.6325 43.6998 43.9543 34.4321 43.9543 22.9998C43.9543 11.5675 34.6325 2.2998 23.1334 2.2998C11.6343 2.2998 2.3125 11.5675 2.3125 22.9998C2.3125 34.4321 11.6343 43.6998 23.1334 43.6998Z" fill="white"/>
</g>
<path d="M28.6157 30.2006C27.0917 31.3494 25.1925 32.0323 23.1322 32.0323C21.0614 32.0323 19.1536 31.3425 17.6258 30.1826L13.0078 34.7234C15.7283 37.0474 19.2638 38.4556 23.1322 38.4556C26.9827 38.4556 30.5035 37.0607 33.2189 34.7556L28.6157 30.2006Z" fill="#00B2FF"/>
<path d="M31.9521 20.8228C32.1256 21.5201 32.219 22.2483 32.219 22.9984C32.219 25.0319 31.5429 26.9081 30.4023 28.4176L35.0049 32.9722C37.3661 30.194 38.6804 26.663 38.6804 22.9984C38.6804 20.5 38.0676 18.0606 36.9273 15.877L31.9521 20.8228Z" fill="#FF4F42"/>
<path d="M15.8441 28.3968C14.7138 26.8911 14.0449 25.0241 14.0449 23.0007C14.0449 18.0121 18.1126 13.968 23.1304 13.968C24.5814 13.968 25.9516 14.3077 27.1684 14.9093L31.8605 10.2439C29.365 8.54395 26.356 7.54443 23.1304 7.54443C14.6017 7.54443 7.58398 14.5217 7.58398 23.0007C7.58398 26.6476 8.88545 30.1631 11.2274 32.9363L15.8441 28.3968Z" fill="#17C22E"/>
<path d="M22.2381 26.717C21.8337 26.717 21.4288 26.5635 21.1203 26.2565L18.0667 23.2208C17.4491 22.6071 17.4491 21.612 18.0667 20.9985C18.6835 20.3844 19.6851 20.3844 20.3022 20.9985L22.2381 22.9227L34.591 10.6417C35.208 10.0276 36.2097 10.0276 36.8267 10.6417C37.4443 11.2552 37.4443 12.2506 36.8267 12.8644L23.3558 26.2565C23.0473 26.5635 22.6426 26.717 22.2381 26.717Z" fill="#34393D"/>
<path d="M57.9098 30.5586H61.4369V20.0469H66.1397V16.5768L53.207 16.543V20.0469H57.9098V30.5586Z" fill="#212529"/>
<path d="M75.5454 28.2227L72.0182 23.5741V30.5586H68.4911V16.543L70.8425 16.5768L75.5454 22.3828L80.2482 16.5768L82.5996 16.543V30.5586H79.0725V23.5741L75.5454 28.2227Z" fill="#212529"/>
<path d="M95.5323 24.7187H89.6538V27.5886H97.8837V30.5924L86.1267 30.5924V16.543H97.8837V19.4629H89.6538V22.3828H95.5323V24.7187Z" fill="#212529"/>
<path fill-rule="evenodd" clip-rule="evenodd" d="M121.398 27.0547H119.046V30.5925H115.519V16.543H121.986C125.513 16.543 127.864 18.2891 127.864 21.7988C127.864 24.1289 126.101 25.8867 124.925 26.4707L128.452 30.5586H124.337L121.398 27.0547ZM124.337 21.7988C124.337 20.0469 123.161 19.4629 121.398 19.4629H119.046V24.1079L121.398 24.1348C123.161 24.1348 124.337 23.5508 124.337 21.7988Z" fill="#212529"/>
<path d="M131.979 30.5586V16.543H135.506V30.5586H131.979Z" fill="#212529"/>
<path d="M108.465 30.5925L104.938 30.5924V20.0807H100.235V16.5768H113.168V20.0807H108.465V30.5925Z" fill="#212529"/>
<path d="M152.57 28.4214C151.168 30.0294 149.083 31.0491 146.753 31.0491C142.534 31.0491 139.113 27.7024 139.113 23.5741C139.113 19.4458 142.534 16.0991 146.753 16.0991C149.082 16.0991 151.166 17.1179 152.568 18.7247L149.857 20.9194C149.119 19.9927 148.003 19.4021 146.754 19.4021C144.533 19.4021 142.732 21.27 142.732 23.5742C142.732 25.8784 144.533 27.7463 146.754 27.7463C148.004 27.7463 149.121 27.1547 149.858 26.2267L152.57 28.4214Z" fill="#212529"/>
<defs>
<filter id="filter0_d" x="0.3125" y="0.799805" width="45.6418" height="45.4" filterUnits="userSpaceOnUse" color-interpolation-filters="sRGB">
<feFlood flood-opacity="0" result="BackgroundImageFix"/>
<feColorMatrix in="SourceAlpha" type="matrix" values="0 0 0 0 0 0 0 0 0 0 0 0 0 0 0 0 0 0 127 0"/>
<feOffset dy="0.5"/>
<feGaussianBlur stdDeviation="1"/>
<feColorMatrix type="matrix" values="0 0 0 0 0.0578824 0 0 0 0 0.109333 0 0 0 0 0.160784 0 0 0 0.32 0"/>
<feBlend mode="normal" in2="BackgroundImageFix" result="effect1_dropShadow"/>
<feBlend mode="normal" in="SourceGraphic" in2="effect1_dropShadow" result="shape"/>
</filter>
</defs>
</svg>
