<svg width="32" height="32" viewBox="0 0 32 32" fill="none" xmlns="http://www.w3.org/2000/svg">
<path opacity="0.2" d="M3.3335 6.66667L1.3335 13.3333L5.3335 14.6667V26.6667H6.6695L22.0002 30.6667L25.3335 18.6667H29.3335V12L23.8335 8.332L23.3335 6.66667L16.6668 4C16.4442 4.888 16.0002 6.66667 13.3335 6.66667C10.6668 6.66667 10.2228 4.888 10.0002 4L3.3335 6.66667Z" fill="#777E85"/>
<path fill-rule="evenodd" clip-rule="evenodd" d="M23.3335 6.66667L23.8335 8.33333L29.3335 12V18.6667H25.3335L22.0002 30.6667L6.66683 26.6667H5.3335V14.6667L1.3335 13.3333L3.3335 6.66667L10.0002 4H16.6668L23.3335 6.66667ZM21.3335 25.7787V26.6667H12.0002L21.0002 28.8667L21.7815 25.9267L21.3335 25.7787ZM13.3335 6.66667C14.9255 6.66667 15.7255 6.03333 16.1588 5.33333H10.5082C10.9415 6.03333 11.7415 6.66667 13.3335 6.66667ZM6.66683 22.6667V25.3333H20.0002V22.6667H6.66683ZM20.0002 21.3333V10.6667H21.3335V13.1333L23.6668 12.4667L22.2642 7.67467L17.4535 5.75067C17.3175 6.00933 17.1482 6.276 16.9322 6.52933C16.1735 7.42267 15.0028 8 13.3335 8C11.6642 8 10.4935 7.42267 9.73483 6.52933C9.51883 6.27733 9.34816 6.01067 9.2135 5.75067L4.40283 7.67467L3.00016 12.4667L5.3335 13.1333V10.6667H6.66683V21.3333H20.0002ZM24.0655 17.3333H28.0002V13L24.5415 10.6947L25.3335 13.3333L21.3335 14.6667V24.3333L22.1508 24.5387L24.0655 17.3333ZM10.6668 14C10.6668 13.3333 11.3335 12 13.3335 12C15.3335 12 16.0002 13.3333 16.0002 14C16.0002 14.6667 15.3335 15.6667 14.6668 15.6667C15.3335 15.6667 16.0002 16 16.0002 17.3333C16.0002 18 15.3335 19.3333 13.3335 19.3333C11.3335 19.3333 10.6668 18 10.6668 17.3333H12.0002C12.0002 17.3333 12.0002 18 13.3335 18C14.0002 18 14.6668 18 14.6668 17.3333C14.6668 16.6667 14.6668 16 12.6668 16V15C14.6668 15 14.6668 14.6667 14.6668 14.3333C14.6668 13.3333 14.0002 13.3333 13.3335 13.3333C12.0002 13.3333 12.0002 14 12.0002 14H10.6668Z" fill="#777E85"/>
</svg>
