<svg width="32" height="32" viewBox="0 0 32 32" fill="none" xmlns="http://www.w3.org/2000/svg">
<path fill-rule="evenodd" clip-rule="evenodd" d="M15.9998 4C8.63604 4 2.6665 9.96954 2.6665 17.3333C2.6665 24.6971 8.63604 30.6667 15.9998 30.6667C23.3636 30.6667 29.3332 24.6971 29.3332 17.3333C29.3332 9.96954 23.3636 4 15.9998 4ZM15.9998 5.33333C9.37242 5.33333 3.99984 10.7059 3.99984 17.3333C3.99984 23.9608 9.37242 29.3333 15.9998 29.3333C22.6273 29.3333 27.9998 23.9608 27.9998 17.3333C27.9998 10.7059 22.6273 5.33333 15.9998 5.33333Z" fill="#777E85"/>
<rect opacity="0.2" x="2.6665" y="4" width="26.6667" height="26.6667" rx="13.3333" fill="#777E85"/>
<path d="M8.66651 11.3333L11.9998 14.6666C12.368 15.0348 12.965 15.0348 13.3332 14.6666C13.7014 14.2985 13.7014 13.7015 13.3332 13.3333L9.99984 9.99998C9.63165 9.63179 9.03469 9.63179 8.6665 9.99998C8.29832 10.3682 8.29832 10.9651 8.66651 11.3333Z" fill="#777E85"/>
<path fill-rule="evenodd" clip-rule="evenodd" d="M15.9997 20C17.4724 20 18.6663 18.8061 18.6663 17.3334C18.6663 15.8606 17.4724 14.6667 15.9997 14.6667C14.5269 14.6667 13.333 15.8606 13.333 17.3334C13.333 18.8061 14.5269 20 15.9997 20ZM15.9997 18.6667C16.7361 18.6667 17.333 18.0697 17.333 17.3334C17.333 16.597 16.7361 16 15.9997 16C15.2633 16 14.6663 16.597 14.6663 17.3334C14.6663 18.0697 15.2633 18.6667 15.9997 18.6667Z" fill="#777E85"/>
<path d="M24.6665 3.99944L28.6665 7.99829C28.6665 7.99829 29.3332 7.3322 29.9998 6.66495C30.6665 5.99771 29.9998 5.33162 29.9998 5.33162L27.3332 2.66611C27.3332 2.66611 26.6665 1.99944 25.9998 2.66611L24.6665 3.99944Z" fill="#777E85"/>
<path d="M13.333 1C13.333 0.447716 13.7807 0 14.333 0H17.6663C18.2186 0 18.6663 0.447715 18.6663 1V2.66667H13.333V1Z" fill="#777E85"/>
</svg>
